HIERARCHY
ROOT Hips
{
    OFFSET 0.000000 0.000000 0.000000
    CHANNELS 6 Xposition Yposition Zposition Zrotation Xrotation Yrotation
    JOINT Spine
    {
        OFFSET -0.000000 7.246840 0.000000
        CHANNELS 3 Zrotation Xrotation Yrotation
        JOINT Spine1
        {
            OFFSET -0.000000 20.289354 0.000000
            CHANNELS 3 Zrotation Xrotation Yrotation
            JOINT Neck
            {
                OFFSET -0.000000 20.206032 1.836912
                CHANNELS 3 Zrotation Xrotation Yrotation
                JOINT Head
                {
                    OFFSET -0.000000 12.372654 -1.767522
                    CHANNELS 3 Zrotation Xrotation Yrotation
                    End Site
                    {
                        OFFSET -0.000000 22.094025 0.000000
                    }
                }
            }
            JOINT LeftShoulder
            {
                OFFSET 3.465871 17.201674 -0.568930
                CHANNELS 3 Zrotation Xrotation Yrotation
                JOINT LeftArm
                {
                    OFFSET 14.070313 0.000000 0.000000
                    CHANNELS 3 Zrotation Xrotation Yrotation
                    JOINT LeftForeArm
                    {
                        OFFSET 26.549477 0.000000 0.000000
                        CHANNELS 3 Zrotation Xrotation Yrotation
                        JOINT LeftHand
                        {
                            OFFSET 18.880413 0.000000 0.000000
                            CHANNELS 3 Zrotation Xrotation Yrotation
                            End Site
                            {
                                OFFSET 13.256415 0.000000 0.000000
                            }
                        }
                    }
                }
            }
            JOINT RightShoulder
            {
                OFFSET -3.526370 17.201674 -0.568930
                CHANNELS 3 Zrotation Xrotation Yrotation
                JOINT RightArm
                {
                    OFFSET -14.070313 0.000000 0.000000
                    CHANNELS 3 Zrotation Xrotation Yrotation
                    JOINT RightForeArm
                    {
                        OFFSET -26.549477 0.000000 0.000000
                        CHANNELS 3 Zrotation Xrotation Yrotation
                        JOINT RightHand
                        {
                            OFFSET -18.880413 0.000000 0.000000
                            CHANNELS 3 Zrotation Xrotation Yrotation
                            End Site
                            {
                                OFFSET -13.256415 0.000000 0.000000
                            }
                        }
                    }
                }
            }
        }
    }
    JOINT LeftUpLeg
    {
        OFFSET 8.837609 0.000000 0.000000
        CHANNELS 3 Zrotation Xrotation Yrotation
        JOINT LeftLeg
        {
            OFFSET -0.000000 -41.345005 0.000000
            CHANNELS 3 Zrotation Xrotation Yrotation
            JOINT LeftFoot
            {
                OFFSET -0.000000 -35.500874 0.000000
                CHANNELS 3 Zrotation Xrotation Yrotation
                JOINT LeftToeBase
                {
                    OFFSET -0.000000 -5.744446 13.256415
                    CHANNELS 3 Zrotation Xrotation Yrotation
                    End Site
                    {
                        OFFSET -0.000000 0.000000 3.535044
                    }
                }
            }
        }
    }
    JOINT RightUpLeg
    {
        OFFSET -8.837609 0.000000 0.000000
        CHANNELS 3 Zrotation Xrotation Yrotation
        JOINT RightLeg
        {
            OFFSET -0.000000 -41.345005 0.000000
            CHANNELS 3 Zrotation Xrotation Yrotation
            JOINT RightFoot
            {
                OFFSET -0.000000 -35.500874 0.000000
                CHANNELS 3 Zrotation Xrotation Yrotation
                JOINT RightToeBase
                {
                    OFFSET -0.000000 -5.744446 13.256415
                    CHANNELS 3 Zrotation Xrotation Yrotation
                    End Site
                    {
                        OFFSET -0.000000 0.000000 3.535044
                    }
                }
            }
        }
    }
}
MOTION
Frames:    8
Frame Time:    0.010000
13.767017    93.978134    71.733688    5.063636    -6.216144    -14.930786    -10.353060    -9.678171    -7.037341    5.010015    5.775701    -6.411349    1.100356    33.472874    13.320887    -15.195286    -20.338966    9.293181    12.538311    -4.273851    1.910090    -21.544245    64.207619    -69.319000    -1.500700    -26.076012    -92.924423    -48.794399    -13.199475    -32.601471    -7.831459    7.842198    10.430897    -137.505859    -40.760223    179.940567    98.730278    -44.807018    -71.630325    41.746052    65.068039    -9.327380    -6.681268    0.608628    7.578677    -0.397287    23.905100    0.869911    -3.143270    24.742441    -5.092526    -0.442769    -9.700020    0.660764    -5.783140    -4.901457    -4.404509    -0.876767    19.352356    3.348400    12.712102    24.229725    -7.082151    -0.671791    0.458354    1.198795    
13.622681    94.149139    72.141205    4.837356    -6.378700    -15.123783    -10.436570    -9.069023    -6.848817    5.383036    5.612382    -6.282864    0.754896    33.448738    13.524087    -15.093314    -20.575758    9.447934    12.001201    -4.131986    1.744967    -21.735966    63.885593    -68.580070    -2.386946    -25.649799    -93.145172    -48.596939    -13.709891    -32.632591    -7.465840    7.861575    10.693856    -137.186600    -40.684357    179.375107    98.574089    -44.819031    -71.321663    45.215366    63.113388    -12.702311    -6.332641    -0.215046    7.218397    -0.580053    23.379566    1.387637    -4.756032    23.359781    -3.784098    0.721979    -8.492350    -1.068120    -5.383322    -4.549245    -4.769332    -0.896809    19.401213    3.042885    10.750814    22.688848    -7.299158    -0.688325    -1.196861    1.250592    
13.491887    94.221336    72.547897    4.680528    -6.544779    -15.223869    -10.511142    -8.439431    -6.715393    5.446529    5.430486    -6.196160    1.040060    33.155521    13.707885    -15.282267    -20.244761    9.669420    11.863722    -3.923991    1.746455    -22.332691    63.552986    -67.739037    -2.811468    -25.172853    -92.959068    -48.724651    -13.615313    -32.558319    -6.857281    7.883734    10.927738    -137.155899    -40.886902    178.467178    97.165337    -44.737495    -71.701866    48.785675    59.815231    -15.355672    -6.015443    -1.068692    6.992494    -0.781962    22.716751    2.039653    -2.728407    22.425838    -5.317053    -0.581133    -10.137831    0.870029    -5.040988    -4.067430    -5.457687    -1.005624    19.089350    2.872560    8.780798    22.028259    -6.519991    -0.960438    -1.628778    1.753326    
13.392787    94.200615    72.963600    4.622736    -6.732160    -15.192711    -10.694133    -7.783074    -6.644824    5.559408    5.235135    -6.169581    1.342165    32.503620    13.739776    -15.442677    -19.503124    9.791471    11.670050    -3.731524    1.805728    -22.960814    63.204700    -66.914063    -3.029477    -24.713964    -92.646332    -49.221058    -13.248132    -32.372124    -6.328758    7.822616    11.141955    -137.165268    -41.234753    177.440521    96.186684    -44.520309    -72.371651    48.509251    59.433716    -14.753885    -5.858241    -1.973700    6.972274    -0.788904    21.968042    2.481279    -2.172184    21.229342    -4.993299    -0.544282    -10.804815    0.818894    -4.885037    -3.458353    -6.337031    -0.990307    18.582415    2.823049    7.910531    21.066748    -6.230855    -0.778542    -2.351641    1.432891    
13.288366    94.082787    73.360237    4.634273    -6.871865    -15.053116    -10.993919    -7.201048    -6.653216    5.652063    5.116701    -6.212032    1.631452    31.592197    13.832473    -15.373240    -18.350954    10.091692    11.586651    -3.444834    2.007514    -23.378351    62.770988    -66.434212    -3.437977    -24.268787    -92.383583    -49.736656    -13.187356    -31.981564    -5.673285    7.673934    11.382945    -137.354156    -41.722820    176.365906    96.242882    -44.241516    -72.152664    47.941025    59.179363    -15.064884    -5.734228    -3.045802    7.078759    -0.728651    21.349392    2.914999    -2.963569    19.590528    -4.697670    -0.999826    -10.850121    1.504752    -4.798988    -2.838364    -7.176994    -0.817836    17.961535    2.687420    6.529882    20.055775    -6.234435    -2.127749    -3.649267    3.973918    
13.202466    93.874290    73.744804    4.688669    -6.937454    -14.810626    -11.361170    -6.653831    -6.669627    5.872979    4.962777    -6.261722    1.984097    30.950373    13.787306    -15.598618    -17.585640    10.118991    11.309317    -3.570573    1.888649    -24.225449    62.722187    -65.259087    -3.662730    -23.930037    -92.220963    -50.256088    -13.089567    -31.533560    -5.210046    7.291125    11.632131    -137.039169    -42.476456    175.747498    96.392044    -43.910507    -71.387520    48.487530    57.435863    -16.458019    -5.664635    -4.312802    7.213257    -0.613435    20.980577    3.527203    -3.203569    18.337421    -4.200018    -0.817355    -11.306258    1.234364    -4.777249    -2.245747    -8.074523    -0.497960    17.212820    2.598080    9.280344    18.035595    -6.419279    -1.129355    -2.409048    2.079823    
13.108810    93.575722    74.104141    4.798209    -6.947113    -14.485118    -11.890246    -6.123909    -6.698999    6.351017    4.807197    -6.327520    2.125051    30.012894    13.729375    -15.580310    -16.577929    10.196658    10.970346    -3.533169    1.772624    -24.553122    62.617725    -64.642059    -3.656835    -23.882847    -92.000549    -50.962128    -12.939192    -31.216034    -5.024201    6.723340    11.910884    -136.121643    -43.087246    175.611877    96.896057    -43.323925    -70.292900    50.821091    55.413464    -18.871050    -5.596799    -5.824096    7.228332    -0.546063    21.080311    4.381611    -4.873444    17.375256    -3.513777    -0.803707    -11.452190    1.215094    -4.785047    -1.668808    -8.607813    -0.026440    16.298130    2.085733    9.400183    16.386484    -5.734621    -1.036746    -3.353586    1.930078    
13.039045    93.185211    74.454102    4.926338    -6.901560    -13.997778    -12.345117    -5.653487    -6.777832    6.636366    4.730602    -6.440327    2.516884    28.931768    13.674713    -15.752127    -15.421791    10.270487    10.884765    -3.514046    1.768445    -24.663851    62.567074    -64.435982    -3.642937    -23.893740    -91.719330    -51.595669    -12.769606    -31.086130    -4.841326    6.250037    12.167721    -135.121231    -43.404213    175.570526    97.540245    -42.768448    -69.432137    51.773232    54.771366    -19.960417    -5.567821    -7.588563    7.031106    -0.433816    21.760332    4.721998    -4.917364    16.207691    -3.411351    -0.890998    -10.940721    1.341883    -4.817681    -1.090353    -9.173444    0.438124    15.240520    2.137921    10.266087    14.671693    -5.440575    -1.188182    -4.178987    2.233387    
